<svg xmlns="http://www.w3.org/2000/svg" xmlns:xlink="http://www.w3.org/1999/xlink" width="1440" height="4145" viewBox="0 0 1440 4145">
  <defs>
    <clipPath id="clip-custom_11">
      <rect width="1440" height="4145"/>
    </clipPath>
  </defs>
  <g id="custom_11" data-name="custom – 11" clip-path="url(#clip-custom_11)">
    <rect width="1440" height="4145" fill="#fff"/>
    <path id="Icon_awesome-star" data-name="Icon awesome-star" d="M101.289,6.953,75.781,58.672l-57.07,8.32A12.506,12.506,0,0,0,11.8,88.32l41.289,40.234L43.32,185.391a12.493,12.493,0,0,0,18.125,13.164L112.5,171.719l51.055,26.836a12.5,12.5,0,0,0,18.125-13.164l-9.766-56.836L213.2,88.32a12.506,12.506,0,0,0-6.914-21.328l-57.07-8.32L123.711,6.953A12.511,12.511,0,0,0,101.289,6.953Z" transform="translate(232.992 302.015) rotate(180)" fill="#ff6b81"/>
    <path id="Icon_awesome-star-2" data-name="Icon awesome-star" d="M101.289,6.953,75.781,58.672l-57.07,8.32A12.506,12.506,0,0,0,11.8,88.32l41.289,40.234L43.32,185.391a12.493,12.493,0,0,0,18.125,13.164L112.5,171.719l51.055,26.836a12.5,12.5,0,0,0,18.125-13.164l-9.766-56.836L213.2,88.32a12.506,12.506,0,0,0-6.914-21.328l-57.07-8.32L123.711,6.953A12.511,12.511,0,0,0,101.289,6.953Z" transform="translate(232.992 2022.015) rotate(180)" fill="#ff576a"/>
    <path id="Icon_awesome-star-3" data-name="Icon awesome-star" d="M101.289,6.953,75.781,58.672l-57.07,8.32A12.506,12.506,0,0,0,11.8,88.32l41.289,40.234L43.32,185.391a12.493,12.493,0,0,0,18.125,13.164L112.5,171.719l51.055,26.836a12.5,12.5,0,0,0,18.125-13.164l-9.766-56.836L213.2,88.32a12.506,12.506,0,0,0-6.914-21.328l-57.07-8.32L123.711,6.953A12.511,12.511,0,0,0,101.289,6.953Z" transform="translate(232.992 3700.015) rotate(180)" fill="#ff576a"/>
    <path id="Icon_awesome-star-4" data-name="Icon awesome-star" d="M101.289,6.953,75.781,58.672l-57.07,8.32A12.506,12.506,0,0,0,11.8,88.32l41.289,40.234L43.32,185.391a12.493,12.493,0,0,0,18.125,13.164L112.5,171.719l51.055,26.836a12.5,12.5,0,0,0,18.125-13.164l-9.766-56.836L213.2,88.32a12.506,12.506,0,0,0-6.914-21.328l-57.07-8.32L123.711,6.953A12.511,12.511,0,0,0,101.289,6.953Z" transform="translate(7.992 955)" fill="#ff576a"/>
    <path id="Icon_awesome-star-5" data-name="Icon awesome-star" d="M101.289,6.953,75.781,58.672l-57.07,8.32A12.506,12.506,0,0,0,11.8,88.32l41.289,40.234L43.32,185.391a12.493,12.493,0,0,0,18.125,13.164L112.5,171.719l51.055,26.836a12.5,12.5,0,0,0,18.125-13.164l-9.766-56.836L213.2,88.32a12.506,12.506,0,0,0-6.914-21.328l-57.07-8.32L123.711,6.953A12.511,12.511,0,0,0,101.289,6.953Z" transform="translate(7.992 2633)" fill="#ff6b81"/>
    <path id="Icon_awesome-star-6" data-name="Icon awesome-star" d="M101.289,6.953,75.781,58.672l-57.07,8.32A12.506,12.506,0,0,0,11.8,88.32l41.289,40.234L43.32,185.391a12.493,12.493,0,0,0,18.125,13.164L112.5,171.719l51.055,26.836a12.5,12.5,0,0,0,18.125-13.164l-9.766-56.836L213.2,88.32a12.506,12.506,0,0,0-6.914-21.328l-57.07-8.32L123.711,6.953A12.511,12.511,0,0,0,101.289,6.953Z" transform="translate(128.992 625.015) rotate(180)" fill="#ff6b81"/>
    <path id="Icon_awesome-star-7" data-name="Icon awesome-star" d="M101.289,6.953,75.781,58.672l-57.07,8.32A12.506,12.506,0,0,0,11.8,88.32l41.289,40.234L43.32,185.391a12.493,12.493,0,0,0,18.125,13.164L112.5,171.719l51.055,26.836a12.5,12.5,0,0,0,18.125-13.164l-9.766-56.836L213.2,88.32a12.506,12.506,0,0,0-6.914-21.328l-57.07-8.32L123.711,6.953A12.511,12.511,0,0,0,101.289,6.953Z" transform="translate(128.992 2345.015) rotate(180)" fill="#ff576a"/>
    <path id="Icon_awesome-star-8" data-name="Icon awesome-star" d="M101.289,6.953,75.781,58.672l-57.07,8.32A12.506,12.506,0,0,0,11.8,88.32l41.289,40.234L43.32,185.391a12.493,12.493,0,0,0,18.125,13.164L112.5,171.719l51.055,26.836a12.5,12.5,0,0,0,18.125-13.164l-9.766-56.836L213.2,88.32a12.506,12.506,0,0,0-6.914-21.328l-57.07-8.32L123.711,6.953A12.511,12.511,0,0,0,101.289,6.953Z" transform="translate(128.992 4023.015) rotate(180)" fill="#ff576a"/>
    <path id="Icon_awesome-star-9" data-name="Icon awesome-star" d="M101.289,6.953,75.781,58.672l-57.07,8.32A12.506,12.506,0,0,0,11.8,88.32l41.289,40.234L43.32,185.391a12.493,12.493,0,0,0,18.125,13.164L112.5,171.719l51.055,26.836a12.5,12.5,0,0,0,18.125-13.164l-9.766-56.836L213.2,88.32a12.506,12.506,0,0,0-6.914-21.328l-57.07-8.32L123.711,6.953A12.511,12.511,0,0,0,101.289,6.953Z" transform="translate(-96.008 1278)" fill="#ff576a"/>
    <path id="Icon_awesome-star-10" data-name="Icon awesome-star" d="M101.289,6.953,75.781,58.672l-57.07,8.32A12.506,12.506,0,0,0,11.8,88.32l41.289,40.234L43.32,185.391a12.493,12.493,0,0,0,18.125,13.164L112.5,171.719l51.055,26.836a12.5,12.5,0,0,0,18.125-13.164l-9.766-56.836L213.2,88.32a12.506,12.506,0,0,0-6.914-21.328l-57.07-8.32L123.711,6.953A12.511,12.511,0,0,0,101.289,6.953Z" transform="translate(-96.008 2956)" fill="#ff6b81"/>
    <path id="Icon_awesome-star-11" data-name="Icon awesome-star" d="M101.289,6.953,75.781,58.672l-57.07,8.32A12.506,12.506,0,0,0,11.8,88.32l41.289,40.234L43.32,185.391a12.493,12.493,0,0,0,18.125,13.164L112.5,171.719l51.055,26.836a12.5,12.5,0,0,0,18.125-13.164l-9.766-56.836L213.2,88.32a12.506,12.506,0,0,0-6.914-21.328l-57.07-8.32L123.711,6.953A12.511,12.511,0,0,0,101.289,6.953Z" transform="translate(1404.992 600.015) rotate(-180)" fill="#ff6b81"/>
    <path id="Icon_awesome-star-12" data-name="Icon awesome-star" d="M101.289,6.953,75.781,58.672l-57.07,8.32A12.506,12.506,0,0,0,11.8,88.32l41.289,40.234L43.32,185.391a12.493,12.493,0,0,0,18.125,13.164L112.5,171.719l51.055,26.836a12.5,12.5,0,0,0,18.125-13.164l-9.766-56.836L213.2,88.32a12.506,12.506,0,0,0-6.914-21.328l-57.07-8.32L123.711,6.953A12.511,12.511,0,0,0,101.289,6.953Z" transform="translate(1404.992 2320.015) rotate(-180)" fill="#ff6b81"/>
    <path id="Icon_awesome-star-13" data-name="Icon awesome-star" d="M101.289,6.953,75.781,58.672l-57.07,8.32A12.506,12.506,0,0,0,11.8,88.32l41.289,40.234L43.32,185.391a12.493,12.493,0,0,0,18.125,13.164L112.5,171.719l51.055,26.836a12.5,12.5,0,0,0,18.125-13.164l-9.766-56.836L213.2,88.32a12.506,12.506,0,0,0-6.914-21.328l-57.07-8.32L123.711,6.953A12.511,12.511,0,0,0,101.289,6.953Z" transform="translate(1404.992 3998.015) rotate(-180)" fill="#ff6b81"/>
    <path id="Icon_awesome-star-14" data-name="Icon awesome-star" d="M101.289,6.953,75.781,58.672l-57.07,8.32A12.506,12.506,0,0,0,11.8,88.32l41.289,40.234L43.32,185.391a12.493,12.493,0,0,0,18.125,13.164L112.5,171.719l51.055,26.836a12.5,12.5,0,0,0,18.125-13.164l-9.766-56.836L213.2,88.32a12.506,12.506,0,0,0-6.914-21.328l-57.07-8.32L123.711,6.953A12.511,12.511,0,0,0,101.289,6.953Z" transform="translate(1179.992 1253)" fill="#ff576a"/>
    <path id="Icon_awesome-star-15" data-name="Icon awesome-star" d="M101.289,6.953,75.781,58.672l-57.07,8.32A12.506,12.506,0,0,0,11.8,88.32l41.289,40.234L43.32,185.391a12.493,12.493,0,0,0,18.125,13.164L112.5,171.719l51.055,26.836a12.5,12.5,0,0,0,18.125-13.164l-9.766-56.836L213.2,88.32a12.506,12.506,0,0,0-6.914-21.328l-57.07-8.32L123.711,6.953A12.511,12.511,0,0,0,101.289,6.953Z" transform="translate(1179.992 2931)" fill="#ff576a"/>
    <path id="Icon_awesome-star-16" data-name="Icon awesome-star" d="M101.289,6.953,75.781,58.672l-57.07,8.32A12.506,12.506,0,0,0,11.8,88.32l41.289,40.234L43.32,185.391a12.493,12.493,0,0,0,18.125,13.164L112.5,171.719l51.055,26.836a12.5,12.5,0,0,0,18.125-13.164l-9.766-56.836L213.2,88.32a12.506,12.506,0,0,0-6.914-21.328l-57.07-8.32L123.711,6.953A12.511,12.511,0,0,0,101.289,6.953Z" transform="translate(1413.992 136.015) rotate(180)" fill="#ff6b81"/>
    <path id="Icon_awesome-star-17" data-name="Icon awesome-star" d="M101.289,6.953,75.781,58.672l-57.07,8.32A12.506,12.506,0,0,0,11.8,88.32l41.289,40.234L43.32,185.391a12.493,12.493,0,0,0,18.125,13.164L112.5,171.719l51.055,26.836a12.5,12.5,0,0,0,18.125-13.164l-9.766-56.836L213.2,88.32a12.506,12.506,0,0,0-6.914-21.328l-57.07-8.32L123.711,6.953A12.511,12.511,0,0,0,101.289,6.953Z" transform="translate(1413.992 1856.015) rotate(180)" fill="#ff6b81"/>
    <path id="Icon_awesome-star-18" data-name="Icon awesome-star" d="M101.289,6.953,75.781,58.672l-57.07,8.32A12.506,12.506,0,0,0,11.8,88.32l41.289,40.234L43.32,185.391a12.493,12.493,0,0,0,18.125,13.164L112.5,171.719l51.055,26.836a12.5,12.5,0,0,0,18.125-13.164l-9.766-56.836L213.2,88.32a12.506,12.506,0,0,0-6.914-21.328l-57.07-8.32L123.711,6.953A12.511,12.511,0,0,0,101.289,6.953Z" transform="translate(1413.992 3534.015) rotate(180)" fill="#ff6b81"/>
    <path id="Icon_awesome-star-19" data-name="Icon awesome-star" d="M101.289,6.953,75.781,58.672l-57.07,8.32A12.506,12.506,0,0,0,11.8,88.32l41.289,40.234L43.32,185.391a12.493,12.493,0,0,0,18.125,13.164L112.5,171.719l51.055,26.836a12.5,12.5,0,0,0,18.125-13.164l-9.766-56.836L213.2,88.32a12.506,12.506,0,0,0-6.914-21.328l-57.07-8.32L123.711,6.953A12.511,12.511,0,0,0,101.289,6.953Z" transform="translate(1188.992 789)" fill="#ff576a"/>
    <path id="Icon_awesome-star-20" data-name="Icon awesome-star" d="M101.289,6.953,75.781,58.672l-57.07,8.32A12.506,12.506,0,0,0,11.8,88.32l41.289,40.234L43.32,185.391a12.493,12.493,0,0,0,18.125,13.164L112.5,171.719l51.055,26.836a12.5,12.5,0,0,0,18.125-13.164l-9.766-56.836L213.2,88.32a12.506,12.506,0,0,0-6.914-21.328l-57.07-8.32L123.711,6.953A12.511,12.511,0,0,0,101.289,6.953Z" transform="translate(1188.992 2467)" fill="#ff576a"/>
    <path id="Icon_awesome-star-21" data-name="Icon awesome-star" d="M101.289,6.953,75.781,58.672l-57.07,8.32A12.506,12.506,0,0,0,11.8,88.32l41.289,40.234L43.32,185.391a12.493,12.493,0,0,0,18.125,13.164L112.5,171.719l51.055,26.836a12.5,12.5,0,0,0,18.125-13.164l-9.766-56.836L213.2,88.32a12.506,12.506,0,0,0-6.914-21.328l-57.07-8.32L123.711,6.953A12.511,12.511,0,0,0,101.289,6.953Z" transform="translate(1577.992 425.015) rotate(180)" fill="#ff6b81" stroke="#ff6b81" stroke-width="1"/>
    <path id="Icon_awesome-star-22" data-name="Icon awesome-star" d="M101.289,6.953,75.781,58.672l-57.07,8.32A12.506,12.506,0,0,0,11.8,88.32l41.289,40.234L43.32,185.391a12.493,12.493,0,0,0,18.125,13.164L112.5,171.719l51.055,26.836a12.5,12.5,0,0,0,18.125-13.164l-9.766-56.836L213.2,88.32a12.506,12.506,0,0,0-6.914-21.328l-57.07-8.32L123.711,6.953A12.511,12.511,0,0,0,101.289,6.953Z" transform="translate(1577.992 2145.015) rotate(180)" fill="#ff6b81"/>
    <path id="Icon_awesome-star-23" data-name="Icon awesome-star" d="M101.289,6.953,75.781,58.672l-57.07,8.32A12.506,12.506,0,0,0,11.8,88.32l41.289,40.234L43.32,185.391a12.493,12.493,0,0,0,18.125,13.164L112.5,171.719l51.055,26.836a12.5,12.5,0,0,0,18.125-13.164l-9.766-56.836L213.2,88.32a12.506,12.506,0,0,0-6.914-21.328l-57.07-8.32L123.711,6.953A12.511,12.511,0,0,0,101.289,6.953Z" transform="translate(1577.992 3823.015) rotate(180)" fill="#ff6b81"/>
    <path id="Icon_awesome-star-24" data-name="Icon awesome-star" d="M101.289,6.953,75.781,58.672l-57.07,8.32A12.506,12.506,0,0,0,11.8,88.32l41.289,40.234L43.32,185.391a12.493,12.493,0,0,0,18.125,13.164L112.5,171.719l51.055,26.836a12.5,12.5,0,0,0,18.125-13.164l-9.766-56.836L213.2,88.32a12.506,12.506,0,0,0-6.914-21.328l-57.07-8.32L123.711,6.953A12.511,12.511,0,0,0,101.289,6.953Z" transform="translate(1352.992 1078)" fill="#ff576a"/>
    <path id="Icon_awesome-star-25" data-name="Icon awesome-star" d="M101.289,6.953,75.781,58.672l-57.07,8.32A12.506,12.506,0,0,0,11.8,88.32l41.289,40.234L43.32,185.391a12.493,12.493,0,0,0,18.125,13.164L112.5,171.719l51.055,26.836a12.5,12.5,0,0,0,18.125-13.164l-9.766-56.836L213.2,88.32a12.506,12.506,0,0,0-6.914-21.328l-57.07-8.32L123.711,6.953A12.511,12.511,0,0,0,101.289,6.953Z" transform="translate(1352.992 2756)" fill="#ff576a"/>
  </g>
</svg>
